# xmcd
#
# Track frame offsets:
#	150
#	23487
#	38531
#	53068
#	70506
#	94765
#	111921
#	137443
#	157311
#	177897
#
# Disc length: 2635 seconds
#
# Revision: 1
# Processed by: cddbd v1.5.2PL0 Copyright (c) Steve Scherf et al.
# Submitted via: audiograbber 1.83.01
#
DISCID=760a490a
DTITLE=Rob Ickes - Andy Leftwich - Dave Pomeroy - Three Ring Circle
DYEAR=2005
DGENRE=Bluegrass
TTITLE0=You Know What I Mean
TTITLE1=Made In France
TTITLE2=Sargasso
TTITLE3=Isn't She Lovely
TTITLE4=Old Age
TTITLE5=Thompson's Camp - Oscar's Dream
TTITLE6=In The Morning
TTITLE7=Moon Over San Bernardino
TTITLE8=Granola Man
TTITLE9=Haywire
EXTD=
EXTT0=
EXTT1=
EXTT2=
EXTT3=
EXTT4=
EXTT5=
EXTT6=
EXTT7=
EXTT8=
EXTT9=
PLAYORDER=
